# AST/ASF file generated using VICON BodyLanguage
# -----------------------------------------------
:version 1.10
:name VICON
:units
  mass 1.0
  length 0.45
  angle deg
:documentation
   .ast/.asf automatically generated from VICON data using
   VICON BodyBuilder and BodyLanguage model FoxedUp or BRILLIANT.MOD
:root
   order TX TY TZ RX RY RZ
   axis XYZ
   position 0 0 0  
   orientation 0 0 0 
:bonedata
  begin
     id 1 
     name lhipjoint
     direction 0.677091 -0.635792 0.370561 
     length 2.74323 
     axis 0 0 0  XYZ
  end
  begin
     id 2 
     name lfemur
     direction 0.34202 -0.939693 0  
     length 7.44995  
     axis 0 0 20  XYZ
    dof rx ry rz
    limits (-160.0 20.0)
           (-70.0 70.0)
           (-60.0 70.0)
  end
  begin
     id 3 
     name ltibia
     direction 0.34202 -0.939693 0   
     length 7.34467   
     axis 0 0 20   XYZ
    dof rx
    limits (-10.0 170.0)
  end
  begin
     id 4 
     name lfoot
     direction 0.101953 -0.280114 0.954537   
     length 1.72105   
     axis -90 7.62852e-016 20   XYZ
    dof rx rz
    limits (-45.0 90.0)
           (-70.0 20.0)
  end
  begin
     id 5 
     name ltoes
     direction 1.53537e-011 -4.21915e-011 1   
     length 0.865872   
     axis -90 7.62852e-016 20   XYZ
    dof rx
    limits (-90.0 20.0)
  end
  begin
     id 6 
     name rhipjoint
     direction -0.695735 -0.620586 0.361699   
     length 2.81045  
     axis 0 0 0  XYZ 
  end
  begin
     id 7 
     name rfemur
     direction -0.34202 -0.939693 0   
     length 7.29387   
     axis 0 0 -20   XYZ
    dof rx ry rz
    limits (-160.0 20.0)
           (-70.0 70.0)
           (-70.0 60.0)
  end
  begin
     id 8 
     name rtibia
     direction -0.34202 -0.939693 0   
     length 7.44935   
     axis 0 0 -20   XYZ
    dof rx
    limits (-10.0 170.0)
 end
 begin
     id 9 
     name rfoot
     direction -0.104163 -0.286184 0.952496   
     length 1.77731  
     axis -90 -7.62852e-016 -20   XYZ
    dof rx rz
    limits (-45.0 90.0)
           (-20.0 70.0)
  end
  begin
     id 10 
     name rtoes
     direction -1.5355e-011 -4.21888e-011 1   
     length 0.892424   
     axis -90 -7.62852e-016 -20   XYZ
    dof rx
    limits (-90.0 20.0)
  end
  begin
     id 11 
     name lowerback
     direction 0.0100202 0.997226 -0.0737589   
     length 2.16892   
     axis 0 0 0   XYZ
    dof rx ry rz
    limits (-20.0 45.0)
           (-30.0 30.0)
           (-30.0 30.0)
  end
  begin
     id 12 
     name upperback
     direction 0.00432398 0.999988 -0.00215019   
     length 2.17326   
     axis 0 0 0   XYZ
    dof rx ry rz
    limits (-20.0 45.0)
           (-30.0 30.0)
           (-30.0 30.0)
  end
  begin
     id 13 
     name thorax
     direction -0.00195047 0.999485 0.0320434   
     length 2.18139   
     axis 0 0 0   XYZ
    dof rx ry rz
    limits (-20.0 45.0)
           (-30.0 30.0)
           (-30.0 30.0)
  end
  begin
     id 14 
     name lowerneck
     direction 0.00782762 0.986241 0.165128   
     length 1.88415   
     axis 0 0 0   XYZ
    dof rx ry rz
    limits (-20.0 45.0)
           (-30.0 30.0)
           (-30.0 30.0)
  end
  begin
     id 15 
     name upperneck
     direction 0.00988667 0.981098 -0.193258   
     length 1.9242   
     axis 0 0 0   XYZ
    dof rx ry rz
    limits (-20.0 45.0)
           (-30.0 30.0)
           (-30.0 30.0)
  end
  begin
     id 16
     name head
     direction 0.00252199 0.996513 -0.0833958  
     length 1.93887  
     axis 0 0 0   XYZ
    dof rx ry rz
    limits (-20.0 45.0)
           (-30.0 30.0)
           (-30.0 30.0)
  end
  begin
     id 17 
     name lclavicle
     direction 0.929492 0.368193 -0.0218667  
     length 3.5955  
     axis 0 0 0   XYZ
    dof ry rz
    limits (-20.0 10.0)
           (0.0 20.0)
  end
  begin
     id 18 
     name lhumerus
     direction 1 -4.48972e-011 1.41911e-027   
     length 5.2795   
     axis 180 -30 -90   XYZ
    dof rx ry rz
    limits (-60.0 90.0)
           (-90.0 90.0)
           (-90.0 90.0)
  end
  begin
     id 19
     name lradius
     direction 1 -4.48963e-011 7.05772e-027   
     length 3.53504   
     axis 180 -30 -90   XYZ
    dof rx
    limits (-10.0 170.0)
  end
  begin
     id 20
     name lwrist
     direction 1 -4.48957e-011 9.54866e-027   
     length 1.76752   
     axis -7.69462e-015 90 90   XYZ
    dof ry
    limits (-180.0 0.0)
 end
  begin
     id 21 
     name lhand
     direction 1 -4.48979e-011 1.90973e-026   
     length 0.667948   
     axis -1.21857e-014 90 90   XYZ
    dof rx rz
    limits (-90.0 90.0)
           (-45.0 45.0)
  end
  begin
     id 22 
     name lfingers
     direction 1 -4.48987e-011 3.81946e-026   
     length 0.538517   
     axis -2.43714e-014 90 90   XYZ
    dof rx
    limits (0.0 90.0)
  end
  begin
     id 23
     name lthumb
     direction 0.707107 -6.34962e-011 0.707107   
     length 0.773206   
     axis -90 45 2.85299e-015   XYZ
    dof rx rz
    limits (-45.0 45.0)
           (-45.0 45.0)
  end
  begin
     id 24 
     name rclavicle
     direction -0.898763 0.414256 -0.143584   
     length 3.5176  
     axis 0 0 0   XYZ 
    dof ry rz
    limits (-10.0 20.0)
           (-20.0 0.0)
  end
  begin
     id 25 
     name rhumerus
     direction -1 -4.48971e-011 1.129e-027  
     length 5.25035   
     axis 180 30 90   XYZ
    dof rx ry rz
    limits (-90.0 60.0)
           (-90.0 90.0)
           (-90.0 90.0)
  end
  begin
     id 26 
     name rradius
     direction -1 -4.48955e-011 6.34664e-027   
     length 3.58884   
     axis 180 30 90   XYZ
    dof rx
    limits (-10.0 170.0)
  end
  begin
     id 27 
     name rwrist
     direction -1 -4.48966e-011 9.54866e-027   
     length 1.79442   
     axis -7.69462e-015 -90 -90   XYZ
    dof ry
    limits (-180.0 0.0)
  end
  begin
     id 28
     name rhand
     direction -1 -4.48973e-011 1.90973e-026   
     length 0.779235   
     axis -1.21857e-014 -90 -90   XYZ
    dof rx rz
    limits (-90.0 90.0)
           (-45.0 45.0)
  end
  begin
     id 29
     name rfingers
     direction -1 -4.48984e-011 3.81946e-026   
     length 0.62824   
     axis -2.43714e-014 -90 -90   XYZ
    dof rx
    limits (0.0 90.0)
  end
  begin
     id 30
     name rthumb
     direction -0.707107 -6.34968e-011 0.707107   
     length 0.90203   
     axis -90 -45 -2.85299e-015   XYZ
    dof rx rz
    limits (-45.0 45.0)
           (-45.0 45.0)
  end
:hierarchy
  begin
    root lhipjoint rhipjoint lowerback
    lhipjoint lfemur
    lfemur ltibia
    ltibia lfoot
    lfoot ltoes
    rhipjoint rfemur
    rfemur rtibia
    rtibia rfoot
    rfoot rtoes
    lowerback upperback
    upperback thorax
    thorax lowerneck lclavicle rclavicle
    lowerneck upperneck
    upperneck head
    lclavicle lhumerus
    lhumerus lradius
    lradius lwrist
    lwrist lhand lthumb
    lhand lfingers
    rclavicle rhumerus
    rhumerus rradius
    rradius rwrist
    rwrist rhand rthumb
    rhand rfingers
  end

#!OML:ASF I:\Random Stuff\random\construction\7_22_03\Session 2\subj1.ASF
:FULLY-SPECIFIED
:DEGREES
326
root -8.60777 17.7318 -5.1663 -316.157 105.677 -330.692
lowerback 8.20033 3.36748 -5.41183
upperback 4.20765 4.68667 -9.75198
thorax 0.25187 2.65652 -7.59874
lowerneck -19.9334 -3.94415 -1.84876
upperneck 43.321 -7.0535 10.3057
head 22.0315 -0.824255 4.48505
rclavicle 5.08889e-014 -2.54444e-014
rhumerus 6.11361 68.1415 -52.7435
rradius 77.8504
rwrist 7.77355
rhand -5.33993 -0.29318
rfingers 7.12502
rthumb 20.4668 -29.2345
lclavicle 5.08889e-014 -2.54444e-014
lhumerus 30.0336 -69.6297 59.4771
lradius 35.7103
lwrist -11.4006
lhand -15.7045 51.1334
lfingers 7.12502
lthumb 10.4852 80.8519
rfemur -12.5057 4.72165 21.46
rtibia 6.75868e-015
rfoot -0.582198 -9.51329
rtoes -25.9086
lfemur -31.6927 -15.8655 -0.644872
ltibia 29.3986
lfoot -14.0159 10.789
ltoes -34.4884
327
root -8.61121 17.7288 -5.17474 -316.774 106.181 -331.215
lowerback 8.43082 3.35843 -5.32723
upperback 4.30185 4.6784 -9.78174
thorax 0.233166 2.66093 -7.69425
lowerneck -19.8828 -4.11905 -1.81142
upperneck 43.2868 -7.41227 10.4683
head 22.0614 -0.928758 4.48135
rclavicle -2.8625e-014 -6.67916e-014
rhumerus 4.99702 67.8242 -53.7888
rradius 77.5887
rwrist 5.42631
rhand -6.04544 -0.935041
rfingers 7.12502
rthumb 19.7887 -29.9477
lclavicle -2.8625e-014 -6.67916e-014
lhumerus 32.1132 -70.3872 57.4617
lradius 35.6018
lwrist -11.291
lhand -16.0041 51.4439
lfingers 7.12502
lthumb 10.1962 81.1768
rfemur -12.3136 4.24193 21.6716
rtibia -3.57812e-015
rfoot -0.688271 -9.49458
rtoes -25.7488
lfemur -31.8577 -16.0083 -0.508485
ltibia 29.519
lfoot -14.0022 10.4532
ltoes -34.2188
328
root -8.6117 17.7277 -5.18123 -317.192 106.675 -331.597
lowerback 8.54812 3.36924 -5.20761
upperback 4.38097 4.71089 -9.83172
thorax 0.269694 2.68672 -7.82629
lowerneck -19.7874 -4.27555 -1.76135
upperneck 43.2272 -7.77201 10.7104
head 22.0651 -1.02076 4.51605
rclavicle -9.54166e-015 -2.8625e-014
rhumerus 3.78436 67.4229 -54.8672
rradius 77.3354
rwrist 3.39263
rhand -6.69392 -1.36177
rfingers 7.12502
rthumb 19.1652 -30.4375
lclavicle -9.54166e-015 -2.8625e-014
lhumerus 34.3515 -71.1205 55.3429
lradius 35.4226
lwrist -11.0976
lhand -16.1373 51.6201
lfingers 7.12502
lthumb 10.0677 81.3593
rfemur -12.1976 3.79763 21.9027
rtibia 1.90833e-014
rfoot -0.778899 -9.49622
rtoes -25.3668
lfemur -32.0521 -15.9656 -0.377433
ltibia 29.6159
lfoot -14.0075 9.98721
ltoes -33.9838
329
root -8.61104 17.7274 -5.1879 -317.701 107.128 -332.098
lowerback 8.64668 3.36826 -5.15112
upperback 4.44459 4.72441 -9.89318
thorax 0.295011 2.70231 -7.93301
lowerneck -19.7494 -4.38732 -1.65697
upperneck 43.1985 -8.03888 10.8416
head 22.0823 -1.08173 4.50391
rclavicle -9.85972e-014 6.36111e-014
rhumerus 2.63972 66.9887 -55.8636
rradius 76.9763
rwrist 2.117
rhand -7.3628 -1.38248
rfingers 7.12502
rthumb 18.5219 -30.5207
lclavicle -9.85972e-014 6.36111e-014
lhumerus 36.3056 -71.7252 53.5057
lradius 35.2733
lwrist -10.8996
lhand -16.0674 51.6378
lfingers 7.12502
lthumb 10.1351 81.3737
rfemur -12.1049 3.35296 22.0643
rtibia -2.46493e-014
rfoot -0.900757 -9.4905
rtoes -24.8496
lfemur -32.2546 -15.9875 -0.286172
ltibia 29.6953
lfoot -14.0213 9.59467
ltoes -33.6653
330
root -8.61289 17.7277 -5.1978 -318.427 107.56 -332.837
lowerback 8.79082 3.35233 -5.11953
upperback 4.48135 4.71107 -9.99367
thorax 0.266314 2.70591 -8.07203
lowerneck -19.6717 -4.4837 -1.53951
upperneck 43.2116 -8.26093 10.9393
head 22.107 -1.12641 4.48634
rclavicle -5.08889e-014 0
rhumerus 1.2953 66.4608 -57.0956
rradius 76.5854
rwrist 0.426724
rhand -8.08703 -1.61638
rfingers 7.12502
rthumb 17.8251 -30.8194
lclavicle -5.08889e-014 0
lhumerus 37.9064 -72.272 52.0038
lradius 35.1345
lwrist -10.8086
lhand -16.0417 51.7248
lfingers 7.12502
lthumb 10.1599 81.4595
rfemur -12.0139 2.86632 22.1287
rtibia -1.74931e-014
rfoot -1.07426 -9.47191
rtoes -24.4303
lfemur -32.4769 -15.8472 -0.351386
ltibia 29.7693
lfoot -13.9728 9.00916
ltoes -33.5704
331
root -8.61467 17.727 -5.20863 -319.223 107.979 -333.673
lowerback 8.93542 3.3682 -5.06804
upperback 4.50866 4.74344 -10.123
thorax 0.236853 2.73465 -8.25904
lowerneck -19.5782 -4.66834 -1.48263
upperneck 43.2642 -8.60423 11.0638
head 22.1897 -1.22207 4.4744
rclavicle 6.99722e-014 2.22639e-014
rhumerus -0.507458 65.7049 -58.7322
rradius 76.3374
rwrist -2.39146
rhand -8.84696 -2.16457
rfingers 7.12502
rthumb 17.0938 -31.4326
lclavicle 6.99722e-014 2.22639e-014
lhumerus 39.6739 -72.8778 50.3987
lradius 35.0018
lwrist -10.758
lhand -16.0245 51.8375
lfingers 7.12502
lthumb 10.1765 81.5714
rfemur -11.9428 2.3661 22.1528
rtibia -1.98785e-014
rfoot -1.18473 -9.47427
rtoes -24.4357
lfemur -32.7342 -15.7391 -0.455541
ltibia 29.8609
lfoot -13.9388 8.46461
ltoes -33.6373
332
root -8.61426 17.7252 -5.21676 -319.768 108.46 -334.237
lowerback 9.01552 3.39344 -4.99381
upperback 4.57761 4.79683 -10.1741
thorax 0.283191 2.77094 -8.36663
lowerneck -19.5308 -4.89236 -1.46916
upperneck 43.2875 -8.9819 11.1243
head 22.2647 -1.34961 4.42155
rclavicle -1.59028e-014 9.54166e-014
rhumerus -2.19622 64.8045 -60.2055
rradius 76.1273
rwrist -5.38422
rhand -9.41605 -2.59836
rfingers 7.12502
rthumb 16.5459 -31.9129
lclavicle -1.59028e-014 9.54166e-014
lhumerus 41.5567 -73.3931 48.8006
lradius 34.8276
lwrist -10.7242
lhand -15.9784 51.7726
lfingers 7.12502
lthumb 10.221 81.5043
rfemur -11.8564 1.87398 22.2905
rtibia 2.3059e-014
rfoot -1.29856 -9.49146
rtoes -24.3711
lfemur -33.0037 -15.8642 -0.3676
ltibia 29.9838
lfoot -14.0189 8.16724
ltoes -33.2888
333
root -8.61436 17.7234 -5.22285 -319.965 108.99 -334.429
lowerback 9.07887 3.42043 -4.88183
upperback 4.67173 4.85124 -10.1307
thorax 0.358512 2.80312 -8.388
lowerneck -19.4792 -5.05937 -1.52732
upperneck 43.2499 -9.2553 11.2191
head 22.2807 -1.45021 4.41756
rclavicle -3.02153e-014 -2.22639e-014
rhumerus -3.40061 63.9428 -61.1793
rradius 75.8667
rwrist -7.47269
rhand -9.90363 -2.95054
rfingers 7.12502
rthumb 16.0764 -32.3037
lclavicle -3.02153e-014 -2.22639e-014
lhumerus 42.9649 -73.7222 47.757
lradius 34.6426
lwrist -10.8143
lhand -15.9443 51.6916
lfingers 7.12502
lthumb 10.2539 81.4216
rfemur -11.7522 1.41995 22.5541
rtibia 8.74653e-015
rfoot -1.50131 -9.50039
rtoes -23.4854
lfemur -33.2702 -16.0124 -0.119469
ltibia 30.1239
lfoot -14.0998 7.90958
ltoes -32.5467
334
root -8.61563 17.7207 -5.22908 -320.158 109.468 -334.585
lowerback 9.22432 3.45699 -4.77768
upperback 4.77142 4.90905 -10.0759
thorax 0.39341 2.8367 -8.39983
lowerneck -19.4463 -5.19646 -1.59907
upperneck 43.2388 -9.4615 11.2891
head 22.3133 -1.5302 4.42242
rclavicle 4.77083e-015 -1.90833e-014
rhumerus -4.27374 63.2055 -61.7977
rradius 75.6117
rwrist -8.63551
rhand -10.474 -3.21389
rfingers 7.12502
rthumb 15.5271 -32.6105
lclavicle 4.77083e-015 -1.90833e-014
lhumerus 43.8226 -73.9309 47.2867
lradius 34.5014
lwrist -10.9657
lhand -16.0186 51.6793
lfingers 7.12502
lthumb 10.1823 81.4129
rfemur -11.6195 1.00815 22.7854
rtibia -7.15625e-015
rfoot -1.70915 -9.49332
rtoes -22.2435
lfemur -33.4872 -16.1891 0.105152
ltibia 30.258
lfoot -14.1351 7.70353
ltoes -31.9992
335
root -8.61759 17.7178 -5.23638 -320.558 109.885 -334.939
lowerback 9.06845 2.66811 -6.00075
upperback 4.72001 3.67382 -9.02608
thorax 0.13004 2.12841 -6.43378
lowerneck -18.8562 -4.45635 -2.82086
upperneck 43.5622 -7.32771 10.3392
head 21.9491 -1.10495 4.64994
rclavicle -5.56597e-014 4.45278e-014
rhumerus -0.690056 66.064 -57.7944
rradius 75.5654
rwrist -10.1649
rhand -11.0421 -3.33037
rfingers 7.12502
rthumb 14.98 -32.7686
lclavicle -5.56597e-014 4.45278e-014
lhumerus 33.8248 -71.0337 58.0886
lradius 33.7913
lwrist -11.975
lhand -16.1705 51.4707
lfingers 7.12502
lthumb 10.0357 81.2114
rfemur -11.4749 0.594387 22.9125
rtibia -4.77083e-015
rfoot -1.87822 -9.46852
rtoes -21.2104
lfemur -33.6741 -16.6406 0.301239
ltibia 30.3708
lfoot -14.2222 7.73107
ltoes -31.3179
336
root -8.62085 17.7155 -5.245 -320.985 110.249 -335.366
lowerback 9.16217 2.64655 -6.04272
upperback 4.78093 3.64547 -9.01775
thorax 0.138421 2.11657 -6.40286
lowerneck -18.7677 -4.52438 -2.79954
upperneck 43.6648 -7.38869 10.2712
head 22.0025 -1.12951 4.60707
rclavicle 4.77083e-015 -6.36111e-015
rhumerus -1.28145 65.7344 -58.241
rradius 75.272
rwrist -11.886
rhand -11.6212 -3.39537
rfingers 7.12502
rthumb 14.422 -32.8743
lclavicle 4.77083e-015 -6.36111e-015
lhumerus 33.9112 -71.0788 58.3314
lradius 33.6068
lwrist -12.115
lhand -16.1422 51.4757
lfingers 7.12502
lthumb 10.063 81.2151
rfemur -11.3894 0.202602 22.9722
rtibia -1.59028e-014
rfoot -2.02731 -9.43816
rtoes -20.3186
lfemur -33.8983 -17.2433 0.504181
ltibia 30.4702
lfoot -14.3233 7.92983
ltoes -30.6501
337
root -8.62275 17.7148 -5.25695 -321.219 110.535 -335.685
lowerback 9.12338 2.61478 -6.04347
upperback 4.80127 3.61754 -9.06088
thorax 0.182957 2.10606 -6.44343
lowerneck -18.6239 -4.53398 -2.77524
upperneck 43.7033 -7.39641 10.2968
head 21.9838 -1.12283 4.61848
rclavicle -2.38542e-014 0
rhumerus -1.72325 65.483 -58.6508
rradius 75.0081
rwrist -13.9606
rhand -12.0299 -3.61191
rfingers 7.12502
rthumb 14.0282 -33.1185
lclavicle -2.38542e-014 0
lhumerus 33.9761 -71.1214 58.502
lradius 33.4237
lwrist -12.2596
lhand -16.0533 51.5222
lfingers 7.12502
lthumb 10.1487 81.2574
rfemur -11.417 -0.102083 23.0078
rtibia -1.74931e-014
rfoot -2.13292 -9.41531
rtoes -19.8652
lfemur -34.1851 -17.5898 0.641748
ltibia 30.5849
lfoot -14.4345 8.03618
ltoes -30.5432
